<?xml version="1.0" encoding="UTF-8" standalone="no"?>
<!DOCTYPE svg  PUBLIC '-//W3C//DTD SVG 1.1//EN'  'http://www.w3.org/Graphics/SVG/1.1/DTD/svg11.dtd'>
<svg xmlns="http://www.w3.org/2000/svg" version="1.1">
<defs>
<font id="AvenirNextLTPro-BoldCn" horiz-adv-x="525">
<font-face panose-1="2 11 8 6 2 2 2 2 2 4" underline-position="-150" underline-thickness="50" ascent="756" units-per-em="1000" bbox="-35 -250 803 964" font-weight="700" descent="-244" cap-height="708" unicode-range="U+0020-00FE" font-family="AvenirNext LT Pro MediumCn" x-height="523"/>
<missing-glyph/>
<glyph unicode=" " horiz-adv-x="200" glyph-name="space"/>
<glyph unicode="!" horiz-adv-x="328" glyph-name="exclam" d="M242 241h-155v467h155v-467zM249 81q0 -38 -24 -64t-61 -26q-36 0 -60 26t-24 64q0 37 24 64t60 27q37 0 61 -26.5t24 -64.5z"/>
<glyph unicode='&quot;' horiz-adv-x="393" glyph-name="quotedbl" d="M323 440h-102v268h102v-268zM172 440h-103v268h103v-268z"/>
<glyph unicode="#" horiz-adv-x="429" glyph-name="numbersign" d="M398 407h-71l-9 -105h51v-99h-61l-20 -203h-83l20 203h-50l-20 -203h-84l20 203h-61v99h71l11 105h-62v99h71l19 202h84l-19 -202h50l20 202h83l-20 -202h60v-99zM245 407h-51l-9 -105h50z"/>
<glyph unicode="$" glyph-name="dollar" d="M230 705v81h62v-75q102 -5 161 -68l-79 -112q-37 42 -88 42q-28 0 -47 -17.5t-19 -52.5q0 -29 18.5 -47t64.5 -41q29 -14 49.5 -28t44.5 -37t36.5 -56.5t12.5 -75.5q0 -88 -44.5 -143.5t-115.5 -70.5v-86h-62v81q-54 2 -102 23.5t-78 52.5l78 115q48 -51 109 -51 q29 0 47.5 18.5t18.5 50.5q0 31 -21 51t-69 43q-65 33 -99.5 75.5t-34.5 119.5q0 87 45 140t112 68z"/>
<glyph unicode="%" horiz-adv-x="694" glyph-name="percent" d="M673 172q0 -83 -39 -135t-105 -52t-104.5 52t-38.5 135t38.5 135.5t104.5 52.5t105 -52.5t39 -135.5zM576 173q0 97 -47 97q-22 0 -34 -27t-12 -70t12 -70t34 -27q47 0 47 97zM310 531q0 -83 -39 -135t-105 -52t-104.5 52t-38.5 135t38.5 136t104.5 53t105 -53t39 -136z M214 532q0 43 -12 70t-36 27q-22 0 -34 -27t-12 -70q0 -42 12 -69.5t34 -27.5q24 0 36 27.5t12 69.5zM538 709l-302 -730l-75 27l303 732z"/>
<glyph unicode="&amp;" horiz-adv-x="607" glyph-name="ampersand" d="M602 0h-178l-41 59q-49 -74 -152 -74q-93 0 -147 55.5t-54 157.5q0 134 117 196q-51 69 -51 148q0 85 53.5 135.5t135.5 50.5q78 0 126.5 -46.5t48.5 -128.5q0 -108 -129 -188l59 -82l49 105h151l-114 -213zM330 544q0 30 -11.5 49t-32.5 19q-22 0 -35.5 -20.5 t-13.5 -49.5q0 -50 34 -92q59 38 59 94zM307 164l-91 131q-16 -9 -29 -32.5t-13 -54.5q0 -41 19 -66t51 -25q43 0 63 47z"/>
<glyph unicode="&apos;" horiz-adv-x="240" glyph-name="quotesingle" d="M171 440h-102v268h102v-268z"/>
<glyph unicode="(" horiz-adv-x="282" glyph-name="parenleft" d="M241 -131l-97 -44q-58 96 -89 218t-31 245t31 245t89 218l97 -44q-106 -185 -106 -419q0 -233 106 -419z"/>
<glyph unicode=")" horiz-adv-x="282" glyph-name="parenright" d="M258 288q0 -123 -31 -245t-89 -218l-97 44q106 186 106 419q0 234 -106 419l97 44q58 -96 89 -218t31 -245z"/>
<glyph unicode="*" horiz-adv-x="474" glyph-name="asterisk" d="M448 519l-121 -38l76 -105l-89 -65l-77 108l-75 -104l-89 64l78 103l-123 41l36 100l120 -42v127h110v-127l121 39z"/>
<glyph unicode="+" horiz-adv-x="666" glyph-name="plus" d="M611 240h-212v-209h-130v209h-213v126h212v209h130v-209h213v-126z"/>
<glyph unicode="," horiz-adv-x="270" glyph-name="comma" d="M224 167l-81 -285h-116l60 285h137z"/>
<glyph unicode="-" horiz-adv-x="248" glyph-name="hyphen" d="M220 217h-192v119h192v-119z"/>
<glyph unicode="." horiz-adv-x="270" glyph-name="period" d="M220 81q0 -38 -24.5 -64t-60.5 -26q-37 0 -61 26t-24 64t24 64.5t61 26.5q36 0 60.5 -27t24.5 -64z"/>
<glyph unicode="/" horiz-adv-x="292" glyph-name="slash" d="M283 739l-194 -777l-84 18l195 778z"/>
<glyph unicode="0" glyph-name="zero" d="M495 354q0 -67 -10 -126t-34 -117t-72.5 -92t-116.5 -34t-116.5 34t-72 92t-33.5 117t-10 126t10 126t33.5 117t72 92t116.5 34t116.5 -34t72.5 -92t34 -117t10 -126zM335 354q0 228 -73 228t-73 -228t73 -228t73 228z"/>
<glyph unicode="1" glyph-name="one" d="M380 0h-157v522l-106 -80l-71 124l194 142h140v-708z"/>
<glyph unicode="2" glyph-name="two" d="M475 513q0 -62 -27.5 -112.5t-78.5 -109.5l-132 -153h229v-138h-419v142l215 247q56 66 56 122q0 33 -15.5 54t-44.5 21q-30 0 -48.5 -24t-22.5 -68l-150 14q12 105 72.5 160t153.5 55q97 0 154.5 -57t57.5 -153z"/>
<glyph unicode="3" glyph-name="three" d="M480 207q0 -104 -63 -163t-160 -59q-89 0 -150 45.5t-81 134.5l141 36q17 -79 83 -79q36 0 55.5 27t19.5 65q0 44 -26 67t-71 23h-36v118h40q40 0 61.5 23.5t21.5 65.5q0 30 -16.5 52.5t-48.5 22.5q-51 0 -69 -67l-137 34q23 87 82 128.5t135 41.5q84 0 144.5 -50.5 t60.5 -141.5q0 -61 -26.5 -104t-70.5 -57v-3q51 -14 81 -58t30 -102z"/>
<glyph unicode="4" glyph-name="four" d="M496 142h-72v-142h-142v142h-259v136l207 430h194v-434h72v-132zM285 274v278h-2l-121 -278h123z"/>
<glyph unicode="5" glyph-name="five" d="M476 235q0 -120 -63 -185t-161 -65q-84 0 -143 46.5t-77 134.5l137 43q20 -85 79 -85q36 0 55 29.5t19 76.5q0 52 -29.5 79.5t-74.5 27.5q-67 0 -141 -31l15 402h359v-139h-225l-5 -122q25 11 54 11q95 0 148 -60t53 -163z"/>
<glyph unicode="6" glyph-name="six" d="M310 472q90 0 137.5 -64.5t47.5 -167.5q0 -119 -64 -187t-166 -68q-104 0 -169 67t-65 185q0 104 60 217l135 254h183l-137 -242l1 -1q12 7 37 7zM341 242q0 52 -20.5 84.5t-56.5 32.5q-34 0 -56.5 -33.5t-22.5 -83.5q0 -51 22 -84t56 -33q35 0 56.5 33t21.5 84z"/>
<glyph unicode="7" glyph-name="seven" d="M464 588l-209 -588h-174l209 567h-243v141h417v-120z"/>
<glyph unicode="8" glyph-name="eight" d="M496 199q0 -93 -64 -153.5t-169 -60.5q-104 0 -166.5 60.5t-62.5 153.5q0 67 32 111.5t79 61.5v2q-97 39 -97 155q0 80 56.5 137t158.5 57q103 0 161 -57t58 -137q0 -116 -96 -155v-2q47 -18 78.5 -62t31.5 -111zM329 518q0 40 -17.5 65t-48.5 25t-48 -25t-17 -65 q0 -38 18 -65t47 -27q30 0 48 27t18 65zM335 208q0 45 -20 73.5t-52 28.5t-52 -28.5t-20 -73.5q0 -44 19.5 -72.5t52.5 -28.5q34 0 53 28t19 73z"/>
<glyph unicode="9" glyph-name="nine" d="M217 245q-90 0 -138.5 64t-48.5 165q0 118 66 183.5t167 65.5q102 0 166.5 -66t64.5 -183q0 -104 -60 -217l-135 -257h-183l139 251l-1 1q-12 -7 -37 -7zM184 472q0 -52 20.5 -83.5t56.5 -31.5q34 0 56.5 32.5t22.5 82.5q0 51 -22 82.5t-56 31.5q-35 0 -56.5 -31.5 t-21.5 -82.5z"/>
<glyph unicode=":" horiz-adv-x="300" glyph-name="colon" d="M233 436q0 -38 -23.5 -63t-59.5 -25t-59 25t-23 63q0 36 23.5 61.5t58.5 25.5t59 -25.5t24 -61.5zM233 85q0 -38 -23.5 -63t-59.5 -25t-59 25t-23 63q0 36 23.5 62t58.5 26t59 -26t24 -62z"/>
<glyph unicode=";" horiz-adv-x="300" glyph-name="semicolon" d="M233 436q0 -38 -23.5 -63t-59.5 -25t-59 25t-23 63q0 36 23.5 61.5t58.5 25.5t59 -25.5t24 -61.5zM230 167l-81 -285h-114l59 285h136z"/>
<glyph unicode="&lt;" horiz-adv-x="666" glyph-name="less" d="M587 37l-508 214v103l508 214v-136l-306 -131l306 -127v-137z"/>
<glyph unicode="=" horiz-adv-x="666" glyph-name="equal" d="M598 335h-530v123h530v-123zM598 150h-530v123h530v-123z"/>
<glyph unicode="&gt;" horiz-adv-x="666" glyph-name="greater" d="M587 251l-508 -214v137l306 127l-306 131v136l508 -214v-103z"/>
<glyph unicode="?" horiz-adv-x="428" glyph-name="question" d="M280 266v-28h-132v42q0 89 69 153l17 18q35 37 35 69q0 69 -55 69q-30 0 -46 -24.5t-20 -55.5l-131 23q12 85 63 140t143 55q89 0 141 -51.5t52 -144.5q0 -59 -23 -98t-70 -81q-43 -39 -43 -86zM306 81q0 -38 -24 -64t-61 -26t-61 26t-24 64t24 64.5t61 26.5t61 -26.5 t24 -64.5z"/>
<glyph unicode="@" horiz-adv-x="640" glyph-name="at" d="M606 403q0 -106 -42.5 -174.5t-113.5 -68.5t-74 72h-2q-26 -72 -91 -72q-51 0 -80.5 48t-29.5 121q0 92 38.5 161.5t103.5 69.5q30 0 48.5 -17.5t23.5 -42.5h2l7 34h82l-23 -134q-13 -85 -13 -106q0 -39 25 -39q26 0 44.5 39t18.5 107q0 116 -54 182t-147 66 q-94 0 -152.5 -85t-58.5 -210q0 -130 59.5 -211t161.5 -81q103 0 175 75l44 -67q-89 -88 -227 -88q-140 0 -219 102.5t-79 268.5q0 162 81 267.5t215 105.5q130 0 203.5 -84t73.5 -239zM368 392q0 76 -40 76q-27 0 -44 -42.5t-17 -96.5q0 -74 42 -74q27 0 43 45t16 92z"/>
<glyph unicode="A" horiz-adv-x="543" glyph-name="A" d="M544 0h-167l-29 129h-159l-29 -129h-160l172 708h201zM328 253l-57 301h-4l-60 -301h121z"/>
<glyph unicode="B" horiz-adv-x="544" glyph-name="B" d="M508 202q0 -104 -61.5 -153t-148.5 -49h-235v708h212q29 0 55.5 -4t55.5 -16t50 -31.5t34.5 -53t13.5 -77.5q0 -114 -88 -155v-2q46 -12 79 -55t33 -112zM343 500q0 39 -21.5 57t-55.5 18h-54v-153h55q32 0 54 19.5t22 58.5zM356 217q0 44 -25.5 66t-60.5 22h-58v-172h60 q37 0 60.5 22t23.5 62z"/>
<glyph unicode="C" horiz-adv-x="512" glyph-name="C" d="M505 77q-69 -96 -196 -96q-123 0 -199 104t-76 269q0 167 76 270t199 103q129 0 195 -89l-86 -116q-39 52 -97 52q-61 0 -94.5 -61.5t-33.5 -158.5q0 -96 34 -158t95 -62q59 0 94 54z"/>
<glyph unicode="D" horiz-adv-x="590" glyph-name="D" d="M556 352q0 -166 -73.5 -259t-220.5 -93h-199v708h199q148 0 221 -93.5t73 -262.5zM395 352q0 104 -36 160t-95 56h-39v-428h39q59 0 95 55.5t36 156.5z"/>
<glyph unicode="E" horiz-adv-x="448" glyph-name="E" d="M417 0h-354v708h342v-141h-189v-139h174v-132h-174v-153h201v-143z"/>
<glyph unicode="F" horiz-adv-x="432" glyph-name="F" d="M408 563h-184v-144h169v-137h-168v-282h-162v708h345v-145z"/>
<glyph unicode="G" horiz-adv-x="560" glyph-name="G" d="M513 42q-75 -58 -195 -58q-132 0 -208 101.5t-76 268.5q0 166 75.5 269.5t198.5 103.5q132 0 197 -86l-87 -117q-36 50 -98 50q-63 1 -95.5 -61.5t-32.5 -158.5t31.5 -158.5t93.5 -62.5q37 0 56 15v132h-76v139h216v-377z"/>
<glyph unicode="H" horiz-adv-x="609" glyph-name="H" d="M546 0h-159v296h-165v-296h-159v708h159v-269h165v269h159v-708z"/>
<glyph unicode="I" horiz-adv-x="287" glyph-name="I" d="M224 0h-161v708h161v-708z"/>
<glyph unicode="J" horiz-adv-x="445" glyph-name="J" d="M385 223q0 -114 -50.5 -176.5t-154.5 -62.5q-73 0 -125.5 42t-68.5 111l130 58q15 -60 56 -60q31 0 42.5 25t11.5 77v471h159v-485z"/>
<glyph unicode="K" horiz-adv-x="568" glyph-name="K" d="M563 0h-185l-151 329h-3v-329h-161v708h161v-295h3l146 295h179l-182 -324z"/>
<glyph unicode="L" horiz-adv-x="423" glyph-name="L" d="M414 0h-351v708h162v-560h189v-148z"/>
<glyph unicode="M" horiz-adv-x="771" glyph-name="M" d="M708 0h-157l6 486h-4l-119 -486h-113l-115 486h-3l5 -486h-145v708h202l114 -456h4l111 456h214v-708z"/>
<glyph unicode="N" horiz-adv-x="603" glyph-name="N" d="M540 0h-171l-164 431h-3l4 -431h-143v708h176l163 -437h3l-3 437h138v-708z"/>
<glyph unicode="O" horiz-adv-x="612" glyph-name="O" d="M578 356q0 -170 -73.5 -272.5t-198.5 -102.5t-198.5 102.5t-73.5 272.5q0 169 73 270t199 101q125 0 198.5 -101t73.5 -270zM414 356q0 96 -28 156t-80 60q-53 0 -80.5 -59.5t-27.5 -156.5t27.5 -157.5t80.5 -60.5q52 0 80 61t28 157z"/>
<glyph unicode="P" horiz-adv-x="522" glyph-name="P" d="M500 486q0 -111 -62 -169.5t-149 -58.5h-69v-258h-157v708h220q41 0 77 -11.5t68.5 -36t52 -69t19.5 -105.5zM350 483q0 45 -22 67.5t-57 22.5h-51v-185h51q34 0 56.5 25.5t22.5 69.5z"/>
<glyph unicode="Q" horiz-adv-x="620" glyph-name="Q" d="M612 0h-311q-126 0 -196.5 94.5t-70.5 263.5q0 168 74 268.5t198 100.5t197 -99.5t73 -262.5q0 -71 -23 -137t-54 -90v-4l113 4v-138zM415 358q0 94 -28.5 153t-79.5 59q-52 0 -80.5 -58.5t-28.5 -153.5q0 -94 28.5 -153.5t80.5 -59.5t80 60t28 153z"/>
<glyph unicode="R" horiz-adv-x="541" glyph-name="R" d="M528 0h-169l-95 282h-47v-282h-154v708h227q104 0 160.5 -54t56.5 -159q0 -72 -30 -118.5t-70 -60.5zM349 486q0 49 -24 68.5t-58 19.5h-50v-179h47q37 0 61 23t24 68z"/>
<glyph unicode="S" horiz-adv-x="461" glyph-name="S" d="M439 656l-83 -118q-38 44 -92 44q-30 0 -50 -18t-20 -55q0 -31 19.5 -49.5t67.5 -42.5q30 -15 51.5 -29.5t46.5 -38.5t38.5 -59t13.5 -79q0 -109 -63.5 -169.5t-156.5 -60.5q-61 0 -114 22.5t-87 57.5l82 120q50 -53 114 -53q30 0 49.5 19.5t19.5 52.5q0 32 -22 53 t-72 46q-68 34 -104.5 78.5t-36.5 125.5q0 109 65.5 166.5t152.5 57.5q115 0 181 -71z"/>
<glyph unicode="T" horiz-adv-x="415" glyph-name="T" d="M416 572h-130v-572h-157v572h-130v136h417v-136z"/>
<glyph unicode="U" horiz-adv-x="581" glyph-name="U" d="M530 262q0 -126 -59.5 -203.5t-182.5 -77.5t-180 77t-57 204v446h161v-432q0 -141 79 -141t79 141v432h160v-446z"/>
<glyph unicode="V" horiz-adv-x="546" glyph-name="V" d="M547 708l-174 -708h-203l-171 708h181l96 -518h2l95 518h174z"/>
<glyph unicode="W" horiz-adv-x="799" glyph-name="W" d="M791 708l-134 -708h-170l-87 475h-2l-86 -475h-170l-133 708h163l73 -493h4l77 493h155l80 -493h3l72 493h155z"/>
<glyph unicode="X" horiz-adv-x="540" glyph-name="X" d="M538 0h-173l-98 234l-97 -234h-167l174 371l-160 337h167l87 -215l88 215h164l-161 -336z"/>
<glyph unicode="Y" horiz-adv-x="492" glyph-name="Y" d="M504 708l-180 -453v-255h-157v255l-179 453h173l85 -293h2l86 293h170z"/>
<glyph unicode="Z" horiz-adv-x="458" glyph-name="Z" d="M424 0h-400v130l217 437h-199v141h382v-127l-216 -436h216v-145z"/>
<glyph unicode="[" horiz-adv-x="282" glyph-name="bracketleft" d="M232 -156h-196v888h196v-99h-78v-690h78v-99z"/>
<glyph unicode="\" horiz-adv-x="292" glyph-name="backslash" d="M5 739l83 19l195 -778l-84 -18z"/>
<glyph unicode="]" horiz-adv-x="282" glyph-name="bracketright" d="M245 -156h-195v99h78v690h-78v99h195v-888z"/>
<glyph unicode="^" horiz-adv-x="690" glyph-name="asciicircum" d="M616 343h-148l-124 213l-123 -213h-148l213 365h118z"/>
<glyph unicode="_" horiz-adv-x="500" glyph-name="underscore" d="M500 -164h-500v89h500v-89z"/>
<glyph unicode="`" horiz-adv-x="274" glyph-name="grave" d="M0 723h130l90 -144h-108z"/>
<glyph unicode="a" horiz-adv-x="465" glyph-name="a" d="M274 199v29h-28q-87 0 -87 -71q0 -29 13 -44.5t33 -15.5q34 0 51.5 30.5t17.5 71.5zM281 65h-2q-10 -36 -40.5 -57t-75.5 -21q-54 0 -95.5 38.5t-41.5 120.5q0 68 34 110.5t81 57.5t108 15h20v8q0 72 -64 72q-54 0 -93 -46l-69 96q31 37 78.5 58.5t95.5 21.5 q103 0 148 -60.5t45 -180.5v-298h-129v65z"/>
<glyph unicode="b" horiz-adv-x="528" glyph-name="b" d="M62 0v756h156v-286h3q9 29 38 49t66 20q82 0 127.5 -75t45.5 -195q0 -123 -46.5 -204t-126.5 -81q-81 0 -110 79h-2v-63h-151zM210 262q0 -62 17.5 -102t49.5 -40q34 0 50.5 39.5t16.5 102.5q0 64 -16.5 103t-50.5 39q-32 0 -49.5 -40t-17.5 -102z"/>
<glyph unicode="c" horiz-adv-x="361" glyph-name="c" d="M365 40q-46 -56 -130 -56q-97 0 -151 76.5t-54 201.5q0 124 55 200.5t152 76.5q80 0 126 -52l-63 -122q-20 30 -51 30q-30 0 -49 -35.5t-19 -97.5t19 -97t52 -35q31 0 50 31z"/>
<glyph unicode="d" horiz-adv-x="528" glyph-name="d" d="M466 0h-151v63h-2q-28 -79 -110 -79q-80 0 -126.5 81t-46.5 204q0 120 45.5 195t127.5 75q38 0 67 -20t38 -49h3v286h155v-756zM318 262q0 62 -17.5 102t-49.5 40q-34 0 -50.5 -39.5t-16.5 -102.5t17 -102.5t50 -39.5q32 0 49.5 40t17.5 102z"/>
<glyph unicode="e" horiz-adv-x="473" glyph-name="e" d="M444 222h-262q1 -45 20.5 -76t50.5 -31q44 0 67 57l115 -65q-57 -126 -188 -126q-96 0 -156.5 73.5t-60.5 205.5q0 128 59 205t154 77q103 0 152 -74.5t49 -201.5v-44zM300 324q0 98 -56 98q-29 0 -45.5 -31t-17.5 -67h119z"/>
<glyph unicode="f" horiz-adv-x="299" glyph-name="f" d="M316 773l-8 -127q-15 5 -32 5q-56 0 -56 -85v-43h80v-122h-79v-401h-153v401h-62v122h62v44q0 95 42.5 154.5t139.5 59.5q36 0 66 -8z"/>
<glyph unicode="g" horiz-adv-x="527" glyph-name="g" d="M315 523h150v-486q0 -277 -234 -277q-53 0 -105.5 19t-87.5 49l73 116q51 -46 110 -46q47 0 69.5 32.5t22.5 86.5v43h-2q-11 -28 -40.5 -47.5t-66.5 -19.5q-83 0 -128.5 75.5t-45.5 194.5q0 122 46.5 199t127.5 77q80 0 108 -78h3v62zM318 262q0 63 -17 102.5t-50 39.5 q-34 0 -50.5 -39.5t-16.5 -102.5t17 -102.5t50 -39.5q32 0 49.5 40t17.5 102z"/>
<glyph unicode="h" horiz-adv-x="538" glyph-name="h" d="M217 308v-308h-157v756h157v-303h3q13 38 45.5 63.5t77.5 25.5q43 0 72 -17.5t43 -51t19.5 -69.5t5.5 -84v-320h-157v321q0 83 -48 83q-28 0 -44.5 -26.5t-16.5 -69.5z"/>
<glyph unicode="i" horiz-adv-x="276" glyph-name="i" d="M217 0h-158v523h158v-523zM224 665q0 -39 -24.5 -65t-61.5 -26q-38 0 -62 26t-24 65q0 38 24 65t62 27t62 -27t24 -65z"/>
<glyph unicode="j" horiz-adv-x="277" glyph-name="j" d="M218 -35q0 -205 -175 -205q-40 0 -70 6l8 137q13 -5 28 -5q29 0 39.5 20t10.5 61v544h159v-558zM225 665q0 -39 -24.5 -65t-61.5 -26q-38 0 -62 26t-24 65q0 38 24 65t62 27t62 -27t24 -65z"/>
<glyph unicode="k" horiz-adv-x="500" glyph-name="k" d="M503 0h-181l-102 240h-2v-240h-156v756h156v-444h2l96 211h184l-132 -240z"/>
<glyph unicode="l" horiz-adv-x="284" glyph-name="l" d="M222 0h-160v756h160v-756z"/>
<glyph unicode="m" horiz-adv-x="796" glyph-name="m" d="M62 523h153v-74h2q10 40 43.5 66.5t80.5 26.5q97 0 122 -93h2q16 40 50 66.5t83 26.5q43 0 72.5 -17.5t44 -51t20 -69t5.5 -84.5v-320h-155v321q0 83 -48 83q-28 0 -44 -26.5t-16 -69.5v-308h-154v321q0 83 -47 83q-28 0 -44 -26.5t-16 -69.5v-308h-154v523z"/>
<glyph unicode="n" horiz-adv-x="540" glyph-name="n" d="M62 523h153v-74h2q14 40 48 66.5t80 26.5q43 0 71.5 -17.5t42.5 -51t19.5 -69.5t5.5 -84v-320h-157v321q0 83 -47 83q-28 0 -44.5 -26.5t-16.5 -69.5v-308h-157v523z"/>
<glyph unicode="o" horiz-adv-x="495" glyph-name="o" d="M465 261q0 -125 -58.5 -202.5t-158.5 -77.5t-159 78t-59 202q0 125 59 203t159 78t158.5 -78t58.5 -203zM315 262q0 63 -16.5 102.5t-50.5 39.5q-33 0 -49.5 -39.5t-16.5 -102.5t16.5 -102.5t49.5 -39.5q34 0 50.5 39.5t16.5 102.5z"/>
<glyph unicode="p" horiz-adv-x="528" glyph-name="p" d="M62 523h151v-62h3q31 78 109 78q82 0 127.5 -76t45.5 -196q0 -123 -46 -203t-127 -80q-41 0 -68.5 20.5t-38.5 51.5h-2v-296h-154v763zM210 262q0 -62 17.5 -102t49.5 -40q34 0 50.5 39.5t16.5 102.5q0 64 -16.5 103t-50.5 39q-32 0 -49.5 -40t-17.5 -102z"/>
<glyph unicode="q" horiz-adv-x="528" glyph-name="q" d="M466 523v-763h-154v296h-2q-11 -31 -38.5 -51.5t-68.5 -20.5q-81 0 -127 80t-46 203q0 120 45.5 196t127.5 76q78 0 109 -78h3v62h151zM318 262q0 62 -17.5 102t-49.5 40q-34 0 -50.5 -39.5t-16.5 -102.5t17 -102.5t50 -39.5q32 0 49.5 40t17.5 102z"/>
<glyph unicode="r" horiz-adv-x="344" glyph-name="r" d="M62 0v523h153v-88h1q28 104 105 104q16 0 25 -3l-10 -157q-17 5 -34 5q-37 0 -59.5 -37t-22.5 -88v-259h-158z"/>
<glyph unicode="s" horiz-adv-x="400" glyph-name="s" d="M383 475l-76 -99q-40 40 -85 40q-19 0 -32.5 -12.5t-13.5 -32.5q0 -19 14 -29t55 -22q128 -39 128 -158q0 -88 -55.5 -133t-125.5 -45q-110 0 -184 72l78 100q48 -50 99 -50q22 0 34.5 13t12.5 34q0 23 -17.5 35t-62.5 26q-117 38 -117 152q0 83 54 128t124 45 q98 0 170 -64z"/>
<glyph unicode="t" horiz-adv-x="315" glyph-name="t" d="M305 4q-32 -17 -85 -17q-151 0 -151 170v244h-63v122h62v126h152v-126h90v-122h-90v-208q0 -73 50 -73q21 0 35 7v-123z"/>
<glyph unicode="u" horiz-adv-x="540" glyph-name="u" d="M478 0h-153v74h-2q-14 -40 -48 -66.5t-80 -26.5q-43 0 -71.5 17.5t-42.5 51t-19.5 69.5t-5.5 84v320h157v-320q0 -83 47 -83q28 0 44.5 26.5t16.5 69.5v307h157v-523z"/>
<glyph unicode="v" horiz-adv-x="470" glyph-name="v" d="M467 523l-137 -523h-191l-136 523h165l70 -358h4l66 358h159z"/>
<glyph unicode="w" horiz-adv-x="692" glyph-name="w" d="M686 523l-118 -523h-159l-66 300h-2l-65 -300h-154l-116 523h160l51 -327h2l60 327h134l62 -327h2l51 327h158z"/>
<glyph unicode="x" horiz-adv-x="468" glyph-name="x" d="M-2 0l126 274l-116 249h167l59 -161l62 161h166l-120 -250l128 -273h-171l-65 166l-63 -166h-173z"/>
<glyph unicode="y" horiz-adv-x="476" glyph-name="y" d="M473 523l-148 -541q-11 -41 -21.5 -69.5t-28 -59.5t-38.5 -49.5t-52.5 -31t-71.5 -12.5t-88 10l21 142q19 -8 42 -8q48 0 63 54l8 29l-156 536h165l75 -349h2l69 349h159z"/>
<glyph unicode="z" horiz-adv-x="399" glyph-name="z" d="M373 0h-346v129l175 262h-165v132h334v-124l-176 -267h178v-132z"/>
<glyph unicode="{" horiz-adv-x="282" glyph-name="braceleft" d="M235 -156h-64q-62 0 -91 43t-29 116v148q0 47 -12.5 64.5t-38.5 17.5v110q26 0 38.5 17.5t12.5 64.5v148q0 73 29 116t91 43h64v-99h-29q-44 0 -44 -72v-158q0 -54 -19.5 -81.5t-42.5 -32.5v-2q23 -5 42.5 -32.5t19.5 -81.5v-158q0 -72 44 -72h29v-99z"/>
<glyph unicode="|" horiz-adv-x="241" glyph-name="bar" d="M186 -250h-130l-1 1000h131v-1000z"/>
<glyph unicode="}" horiz-adv-x="282" glyph-name="braceright" d="M282 233q-26 0 -38.5 -17.5t-12.5 -64.5v-148q0 -73 -29 -116t-91 -43h-65v99h30q44 0 44 72v158q0 54 19 81.5t43 32.5v2q-24 5 -43 32.5t-19 81.5v158q0 72 -44 72h-30v99h65q62 0 91 -43t29 -116v-148q0 -47 12.5 -64.5t38.5 -17.5v-110z"/>
<glyph unicode="~" horiz-adv-x="666" glyph-name="asciitilde" d="M593 287v-2q-27 -46 -59 -73t-80 -27q-52 0 -112 38q-61 38 -107 38q-50 0 -84 -70l-66 104q51 99 137 99q58 0 120 -37q69 -40 99 -40q25 0 44.5 18.5t42.5 52.5z"/>
<glyph unicode=" " horiz-adv-x="200" glyph-name="uni00A0"/>
<glyph unicode="¡" horiz-adv-x="328" glyph-name="exclamdown" d="M242 295v-467h-155v467h155zM249 455q0 -38 -24 -64.5t-61 -26.5q-36 0 -60 27t-24 64q0 38 24 64t60 26q37 0 61 -26t24 -64z"/>
<glyph unicode="¢" glyph-name="cent" d="M327 530q62 -8 99 -49l-63 -120q-20 30 -51 30q-30 0 -49 -34.5t-19 -94.5t19 -94t52 -34q31 0 50 31l63 -119q-38 -44 -101 -53v-56h-64v57q-80 13 -126 86q-44 71 -44 182q0 108 44.5 180t125.5 87v54h64v-53z"/>
<glyph unicode="£" horiz-adv-x="529" glyph-name="sterling" d="M284 426h113v-117h-113v-169h175v-140h-407v140h76v169h-73v117h73v63q0 58 19.5 110t69.5 90.5t124 38.5q93 0 148 -49l-73 -119q-19 21 -57 21q-75 0 -75 -106v-49z"/>
<glyph unicode="¤" horiz-adv-x="950" glyph-name="currency" d="M713 459q42 -65 42 -150q0 -90 -45 -155l93 -93l-84 -84q-32 31 -97 96q-64 -39 -146 -39q-78 0 -147 41q-66 -66 -99 -98l-84 84l96 96q-42 62 -42 152q0 83 39 147l-93 93q29 28 85 84q16 -16 48 -47.5t47 -46.5q68 41 150 41q83 0 150 -39l92 92q14 -14 42.5 -42 t42.5 -42zM476 441q-55 0 -90.5 -38.5t-35.5 -93.5q0 -57 35.5 -95.5t90.5 -38.5q56 0 91.5 38.5t35.5 95.5q0 54 -36 93t-91 39z"/>
<glyph unicode="¥" horiz-adv-x="529" glyph-name="yen" d="M393 428h78v-105h-133v-76h133v-105h-133v-142h-157v142h-129v105h129v76h-129v105h81l-121 280h163l89 -267l88 267h160z"/>
<glyph unicode="¦" horiz-adv-x="241" glyph-name="brokenbar" d="M186 313h-131v362h131v-362zM186 -175h-131v362h131v-362z"/>
<glyph unicode="§" horiz-adv-x="516" glyph-name="section" d="M338 270q0 26 -17.5 41.5t-52.5 32.5l-53 24q-16 -5 -28 -19.5t-12 -36.5q0 -27 17 -41.5t53 -30.5l52 -24q41 10 41 54zM212 111l-38 15q-65 26 -95 64t-30 104q0 48 23.5 83t53.5 51q-50 38 -50 113q0 78 56 132t143 54q125 0 185 -83l-92 -86q-31 45 -88 45 q-27 0 -45.5 -14.5t-18.5 -43.5q0 -24 15.5 -36.5t61.5 -32.5q7 -3 11 -5l31 -14q67 -30 99.5 -70.5t32.5 -104.5q0 -46 -22 -79.5t-56 -47.5q54 -38 54 -111q0 -98 -61.5 -145t-143.5 -47q-62 0 -117 21.5t-90 61.5l84 101q49 -60 121 -60q27 0 46 14t19 41t-19 43.5 t-70 36.5z"/>
<glyph unicode="¨" horiz-adv-x="274" glyph-name="dieresis" d="M119 666q0 -35 -21.5 -58.5t-52.5 -23.5q-33 0 -53.5 23.5t-20.5 58.5q0 34 21 58t53 24t53 -24t21 -58zM303 666q0 -35 -21.5 -58.5t-52.5 -23.5q-33 0 -53.5 23.5t-20.5 58.5q0 34 21 58t53 24t53 -24t21 -58z"/>
<glyph unicode="©" horiz-adv-x="640" glyph-name="copyright" d="M387 266l58 -77q-41 -63 -110 -63q-75 0 -119.5 63t-44.5 168t44 168.5t117 63.5q74 0 112 -59l-55 -79q-17 33 -50 33q-27 0 -44 -36t-17 -91t17 -90.5t44 -35.5q31 0 48 35zM320 -20q-127 0 -205.5 102t-78.5 273t78.5 273t205.5 102t205.5 -102t78.5 -273t-78.5 -273 t-205.5 -102zM320 686q-106 0 -169 -92.5t-63 -238.5t63 -238.5t169 -92.5t169 92.5t63 238.5t-63 238.5t-169 92.5z"/>
<glyph unicode="ª" horiz-adv-x="320" glyph-name="ordfeminine" d="M270 396h-77v35h-2q-15 -44 -71 -44q-34 0 -59.5 24t-25.5 71q0 60 36.5 85.5t93.5 25.5h16v7q0 37 -37 37q-27 0 -55 -24l-42 64q44 44 107 44q116 0 116 -148v-177zM182 512v17h-15q-48 0 -48 -42q0 -15 7.5 -24t19.5 -9q36 0 36 58z"/>
<glyph unicode="«" horiz-adv-x="416" glyph-name="guillemotleft" d="M225 73l-80 -42l-109 231l109 231l80 -42l-88 -189zM380 73l-80 -42l-109 231l109 231l80 -42l-88 -189z"/>
<glyph unicode="¬" horiz-adv-x="666" glyph-name="logicalnot" d="M606 145h-130v183h-425v123h555v-306z"/>
<glyph unicode="­" horiz-adv-x="248" glyph-name="uni00AD" d="M220 217h-192v119h192v-119z"/>
<glyph unicode="®" horiz-adv-x="480" glyph-name="registered" d="M229 518h16q9 0 15 9t6 23q0 10 -6 16.5t-15 6.5h-16v-55zM346 371h-75l-33 93h-9v-93h-71v266h90q37 0 62 -20t25 -66q0 -59 -33 -74zM240 274q-76 0 -123 61t-47 164t47 164t123 61t123 -61t47 -164t-47 -164t-123 -61zM240 698q-64 0 -101.5 -55.5t-37.5 -143.5 t37.5 -143.5t101.5 -55.5t101.5 55.5t37.5 143.5t-37.5 143.5t-101.5 55.5z"/>
<glyph unicode="¯" horiz-adv-x="274" glyph-name="macron" d="M284 613h-294v77h294v-77z"/>
<glyph unicode="°" horiz-adv-x="320" glyph-name="degree" d="M288 560q0 -70 -35 -121t-93 -51t-93 51t-35 121q0 69 35 119t93 50t93 -50t35 -119zM219 560q0 44 -16 72.5t-43 28.5t-43 -28.5t-16 -72.5q0 -46 16 -75t43 -29t43 29t16 75z"/>
<glyph unicode="±" horiz-adv-x="666" glyph-name="plusminus" d="M616 331h-212v-132h-130v132h-213v127h213v132h130v-132h212v-127zM616 31h-555v127h555v-127z"/>
<glyph unicode="²" horiz-adv-x="325" glyph-name="twosuperior" d="M306 585q0 -27 -11 -53t-23 -42t-34 -41l-84 -93h147v-89h-268v93l136 154q35 42 35 70q0 44 -37 44q-39 0 -44 -56l-98 9q8 67 46.5 102t98.5 35q64 0 100 -35.5t36 -97.5z"/>
<glyph unicode="³" horiz-adv-x="325" glyph-name="threesuperior" d="M306 397q0 -66 -39.5 -103t-101.5 -37q-58 0 -96.5 29t-51.5 86l93 23q5 -21 18.5 -35t33.5 -14q22 0 34 15.5t12 38.5q0 56 -61 56h-24v78h27q24 0 37.5 14.5t13.5 39.5q0 18 -10 31t-30 13q-15 0 -26.5 -11t-16.5 -29l-90 23q15 54 53.5 80t85.5 26q54 0 92.5 -31.5 t38.5 -88.5q0 -38 -17.5 -65t-45.5 -36v-1q33 -10 52 -38t19 -64z"/>
<glyph unicode="´" horiz-adv-x="274" glyph-name="acute" d="M274 723l-112 -144h-108l90 144h130z"/>
<glyph unicode="µ" horiz-adv-x="666" glyph-name="mu" d="M89 498h162v-248q0 -29 4.5 -53.5t23 -47.5t49.5 -23q47 0 69 31t22 80v261h162v-498h-155v57h-1q-37 -64 -111 -64q-41 0 -63 20v-239h-162v724z"/>
<glyph unicode="¶" horiz-adv-x="618" glyph-name="paragraph" d="M555 -129h-116v737h-85v-737h-116v464q-98 2 -156 52t-58 131q0 190 244 190h287v-837z"/>
<glyph unicode="·" horiz-adv-x="270" glyph-name="periodcentered" d="M220 269q0 -38 -24.5 -64t-60.5 -26q-37 0 -61 26t-24 64t24 64.5t61 26.5q36 0 60.5 -27t24.5 -64z"/>
<glyph unicode="¸" horiz-adv-x="274" glyph-name="cedilla" d="M257 -139q0 -52 -42 -74.5t-94 -22.5q-63 0 -110 22l24 62q34 -17 77 -17q48 0 48 32q0 27 -42 27q-22 0 -44 -9l-31 28l65 91h84l-47 -61q8 2 23 2q36 0 62.5 -18.5t26.5 -61.5z"/>
<glyph unicode="¹" horiz-adv-x="325" glyph-name="onesuperior" d="M247 265h-106v320l-67 -49l-45 81l120 91h98v-443z"/>
<glyph unicode="º" horiz-adv-x="320" glyph-name="ordmasculine" d="M290 552q0 -74 -35 -121t-95 -47t-95.5 47t-35.5 121q0 75 35 122t96 47q60 0 95 -46.5t35 -122.5zM197 553q0 80 -37 80t-37 -80t37 -80t37 80z"/>
<glyph unicode="»" horiz-adv-x="416" glyph-name="guillemotright" d="M191 73l88 189l-88 189l80 42l109 -231l-109 -231zM36 73l88 189l-88 189l80 42l109 -231l-109 -231z"/>
<glyph unicode="¼" horiz-adv-x="750" glyph-name="onequarter" d="M719 88h-44v-88h-93v88h-170v88l131 268h132v-270h44v-86zM584 174v174h-1l-80 -174h81zM554 711l-271 -730l-78 24l270 732zM247 265h-106v320l-67 -49l-45 81l120 91h98v-443z"/>
<glyph unicode="½" horiz-adv-x="750" glyph-name="onehalf" d="M727 318q0 -27 -11 -53t-23 -42t-34 -41l-84 -93h147v-89h-268v93l136 154q35 42 35 70q0 44 -37 44q-39 0 -44 -56l-98 9q8 67 46.5 102t98.5 35q64 0 100 -35.5t36 -97.5zM554 711l-271 -730l-78 24l270 732zM247 265h-106v320l-67 -49l-45 81l120 91h98v-443z"/>
<glyph unicode="¾" horiz-adv-x="750" glyph-name="threequarters" d="M719 88h-44v-88h-93v88h-170v88l131 268h132v-270h44v-86zM584 174v174h-1l-80 -174h81zM306 397q0 -66 -39.5 -103t-101.5 -37q-58 0 -96.5 29t-51.5 86l93 23q5 -21 18.5 -35t33.5 -14q22 0 34 15.5t12 38.5q0 56 -61 56h-24v78h27q24 0 37.5 14.5t13.5 39.5 q0 18 -10 31t-30 13q-15 0 -26.5 -11t-16.5 -29l-90 23q15 54 53.5 80t85.5 26q54 0 92.5 -31.5t38.5 -88.5q0 -38 -17.5 -65t-45.5 -36v-1q33 -10 52 -38t19 -64zM554 711l-271 -730l-78 24l270 732z"/>
<glyph unicode="¿" horiz-adv-x="428" glyph-name="questiondown" d="M148 270v28h132v-42q0 -89 -69 -153l-17 -18q-35 -37 -35 -69q0 -69 55 -69q30 0 46 24.5t20 55.5l131 -23q-12 -85 -63 -140t-143 -55q-89 0 -141 51.5t-52 144.5q0 59 23 98t70 81q43 39 43 86zM122 455q0 38 24 64t61 26t61 -26t24 -64t-24 -64.5t-61 -26.5t-61 26.5 t-24 64.5z"/>
<glyph unicode="À" horiz-adv-x="543" glyph-name="Agrave" d="M544 0h-167l-29 129h-159l-29 -129h-160l172 708h201zM328 253l-57 301h-4l-60 -301h121zM138 908h130l90 -144h-108z"/>
<glyph unicode="Á" horiz-adv-x="543" glyph-name="Aacute" d="M544 0h-167l-29 129h-159l-29 -129h-160l172 708h201zM328 253l-57 301h-4l-60 -301h121zM406 908l-112 -144h-108l90 144h130z"/>
<glyph unicode="Â" horiz-adv-x="543" glyph-name="Acircumflex" d="M544 0h-167l-29 129h-159l-29 -129h-160l172 708h201zM328 253l-57 301h-4l-60 -301h121zM446 764h-108l-67 85l-66 -85h-107l115 144h119z"/>
<glyph unicode="Ã" horiz-adv-x="543" glyph-name="Atilde" d="M544 0h-167l-29 129h-159l-29 -129h-160l172 708h201zM328 253l-57 301h-4l-60 -301h121zM426 896q-2 -58 -26 -92t-63 -34q-32 0 -69 23q-35 22 -56 22q-28 0 -33 -44h-58q3 56 26.5 91t62.5 35q31 0 70 -24q38 -22 57 -22q15 0 22 10.5t10 34.5h57z"/>
<glyph unicode="Ä" horiz-adv-x="543" glyph-name="Adieresis" d="M544 0h-167l-29 129h-159l-29 -129h-160l172 708h201zM328 253l-57 301h-4l-60 -301h121zM254 851q0 -35 -21.5 -58.5t-52.5 -23.5q-33 0 -53.5 23.5t-20.5 58.5q0 34 21 58t53 24t53 -24t21 -58zM438 851q0 -35 -21.5 -58.5t-52.5 -23.5q-33 0 -53.5 23.5t-20.5 58.5 q0 34 21 58t53 24t53 -24t21 -58z"/>
<glyph unicode="Å" horiz-adv-x="543" glyph-name="Aring" d="M544 0h-167l-29 129h-159l-29 -129h-160l172 708h201zM328 253l-57 301h-4l-60 -301h121zM371 855q0 -47 -28.5 -78t-73.5 -31t-72.5 31t-27.5 78t27.5 78t72.5 31t73.5 -31t28.5 -78zM323 855q0 28 -14.5 46.5t-39.5 18.5t-38.5 -18.5t-13.5 -46.5t13.5 -46.5 t38.5 -18.5t39.5 18.5t14.5 46.5z"/>
<glyph unicode="Æ" horiz-adv-x="720" glyph-name="AE" d="M690 0h-343v131h-143l-43 -131h-164l246 708h436v-141h-185v-139h169v-132h-169v-153h196v-143zM347 257v314h-5l-101 -314h106z"/>
<glyph unicode="Ç" horiz-adv-x="512" glyph-name="Ccedilla" d="M505 77q-63 -87 -174 -95l-33 -43q8 2 23 2q36 0 62.5 -18.5t26.5 -61.5q0 -52 -42 -74.5t-94 -22.5q-63 0 -110 22l24 62q34 -17 77 -17q48 0 48 32q0 27 -42 27q-22 0 -44 -9l-31 28l56 79q-100 23 -159 122t-59 244q0 167 76 270t199 103q129 0 195 -89l-86 -116 q-39 52 -97 52q-61 0 -94.5 -61.5t-33.5 -158.5q0 -96 34 -158t95 -62q59 0 94 54z"/>
<glyph unicode="È" horiz-adv-x="448" glyph-name="Egrave" d="M417 0h-354v708h342v-141h-189v-139h174v-132h-174v-153h201v-143zM76 908h130l90 -144h-108z"/>
<glyph unicode="É" horiz-adv-x="448" glyph-name="Eacute" d="M417 0h-354v708h342v-141h-189v-139h174v-132h-174v-153h201v-143zM384 908l-112 -144h-108l90 144h130z"/>
<glyph unicode="Ê" horiz-adv-x="448" glyph-name="Ecircumflex" d="M417 0h-354v708h342v-141h-189v-139h174v-132h-174v-153h201v-143zM409 764h-108l-67 85l-66 -85h-107l115 144h119z"/>
<glyph unicode="Ë" horiz-adv-x="448" glyph-name="Edieresis" d="M417 0h-354v708h342v-141h-189v-139h174v-132h-174v-153h201v-143zM217 851q0 -35 -21.5 -58.5t-52.5 -23.5q-33 0 -53.5 23.5t-20.5 58.5q0 34 21 58t53 24t53 -24t21 -58zM401 851q0 -35 -21.5 -58.5t-52.5 -23.5q-33 0 -53.5 23.5t-20.5 58.5q0 34 21 58t53 24t53 -24 t21 -58z"/>
<glyph unicode="Ì" horiz-adv-x="287" glyph-name="Igrave" d="M224 0h-161v708h161v-708zM3 908h130l90 -144h-108z"/>
<glyph unicode="Í" horiz-adv-x="287" glyph-name="Iacute" d="M224 0h-161v708h161v-708zM285 908l-112 -144h-108l90 144h130z"/>
<glyph unicode="Î" horiz-adv-x="287" glyph-name="Icircumflex" d="M224 0h-161v708h161v-708zM318 764h-108l-67 85l-66 -85h-107l115 144h119z"/>
<glyph unicode="Ï" horiz-adv-x="287" glyph-name="Idieresis" d="M224 0h-161v708h161v-708zM125 851q0 -35 -21.5 -58.5t-52.5 -23.5q-33 0 -53.5 23.5t-20.5 58.5q0 34 21 58t53 24t53 -24t21 -58zM309 851q0 -35 -21.5 -58.5t-52.5 -23.5q-33 0 -53.5 23.5t-20.5 58.5q0 34 21 58t53 24t53 -24t21 -58z"/>
<glyph unicode="Ð" horiz-adv-x="595" glyph-name="Eth" d="M63 308h-49v105h49v295h199q148 0 221 -93.5t73 -262.5q0 -166 -73.5 -259t-220.5 -93h-199v308zM225 413h95v-105h-95v-168h39q59 0 95 55.5t36 156.5q0 104 -36 160t-95 56h-39v-155z"/>
<glyph unicode="Ñ" horiz-adv-x="603" glyph-name="Ntilde" d="M540 0h-171l-164 431h-3l4 -431h-143v708h176l163 -437h3l-3 437h138v-708zM458 896q-2 -58 -26 -92t-63 -34q-32 0 -69 23q-35 22 -56 22q-28 0 -33 -44h-58q3 56 26.5 91t62.5 35q31 0 70 -24q38 -22 57 -22q15 0 22 10.5t10 34.5h57z"/>
<glyph unicode="Ò" horiz-adv-x="612" glyph-name="Ograve" d="M578 356q0 -170 -73.5 -272.5t-198.5 -102.5t-198.5 102.5t-73.5 272.5q0 169 73 270t199 101q125 0 198.5 -101t73.5 -270zM414 356q0 96 -28 156t-80 60q-53 0 -80.5 -59.5t-27.5 -156.5t27.5 -157.5t80.5 -60.5q52 0 80 61t28 157zM151 908h130l90 -144h-108z"/>
<glyph unicode="Ó" horiz-adv-x="612" glyph-name="Oacute" d="M578 356q0 -170 -73.5 -272.5t-198.5 -102.5t-198.5 102.5t-73.5 272.5q0 169 73 270t199 101q125 0 198.5 -101t73.5 -270zM414 356q0 96 -28 156t-80 60q-53 0 -80.5 -59.5t-27.5 -156.5t27.5 -157.5t80.5 -60.5q52 0 80 61t28 157zM451 908l-112 -144h-108l90 144h130 z"/>
<glyph unicode="Ô" horiz-adv-x="612" glyph-name="Ocircumflex" d="M578 356q0 -170 -73.5 -272.5t-198.5 -102.5t-198.5 102.5t-73.5 272.5q0 169 73 270t199 101q125 0 198.5 -101t73.5 -270zM414 356q0 96 -28 156t-80 60q-53 0 -80.5 -59.5t-27.5 -156.5t27.5 -157.5t80.5 -60.5q52 0 80 61t28 157zM480 764h-108l-67 85l-66 -85h-107 l115 144h119z"/>
<glyph unicode="Õ" horiz-adv-x="612" glyph-name="Otilde" d="M578 356q0 -170 -73.5 -272.5t-198.5 -102.5t-198.5 102.5t-73.5 272.5q0 169 73 270t199 101q125 0 198.5 -101t73.5 -270zM414 356q0 96 -28 156t-80 60q-53 0 -80.5 -59.5t-27.5 -156.5t27.5 -157.5t80.5 -60.5q52 0 80 61t28 157zM459 896q-2 -58 -26 -92t-63 -34 q-32 0 -69 23q-35 22 -56 22q-28 0 -33 -44h-58q3 56 26.5 91t62.5 35q31 0 70 -24q38 -22 57 -22q15 0 22 10.5t10 34.5h57z"/>
<glyph unicode="Ö" horiz-adv-x="612" glyph-name="Odieresis" d="M578 356q0 -170 -73.5 -272.5t-198.5 -102.5t-198.5 102.5t-73.5 272.5q0 169 73 270t199 101q125 0 198.5 -101t73.5 -270zM414 356q0 96 -28 156t-80 60q-53 0 -80.5 -59.5t-27.5 -156.5t27.5 -157.5t80.5 -60.5q52 0 80 61t28 157zM288 851q0 -35 -21.5 -58.5 t-52.5 -23.5q-33 0 -53.5 23.5t-20.5 58.5q0 34 21 58t53 24t53 -24t21 -58zM472 851q0 -35 -21.5 -58.5t-52.5 -23.5q-33 0 -53.5 23.5t-20.5 58.5q0 34 21 58t53 24t53 -24t21 -58z"/>
<glyph unicode="×" horiz-adv-x="666" glyph-name="multiply" d="M604 130l-94 -93l-177 173l-176 -173l-93 89l177 175l-178 174l94 91l177 -173l174 172l91 -87l-174 -173z"/>
<glyph unicode="Ø" horiz-adv-x="615" glyph-name="Oslash" d="M578 356q0 -170 -73.5 -272.5t-198.5 -102.5q-74 0 -136 40l-32 -69l-78 36l48 94q-74 102 -74 274q0 169 73 270t199 101q72 0 132 -38l34 72l77 -35l-48 -95q77 -102 77 -275zM420 356q0 66 -13 115l-162 -317q27 -27 61 -27q55 0 84.5 64t29.5 165zM192 356 q0 -67 11 -112l159 315q-24 24 -56 24q-56 0 -85 -63t-29 -164z"/>
<glyph unicode="Ù" horiz-adv-x="581" glyph-name="Ugrave" d="M530 262q0 -126 -59.5 -203.5t-182.5 -77.5t-180 77t-57 204v446h161v-432q0 -141 79 -141t79 141v432h160v-446zM148 908h130l90 -144h-108z"/>
<glyph unicode="Ú" horiz-adv-x="581" glyph-name="Uacute" d="M530 262q0 -126 -59.5 -203.5t-182.5 -77.5t-180 77t-57 204v446h161v-432q0 -141 79 -141t79 141v432h160v-446zM443 908l-112 -144h-108l90 144h130z"/>
<glyph unicode="Û" horiz-adv-x="581" glyph-name="Ucircumflex" d="M530 262q0 -126 -59.5 -203.5t-182.5 -77.5t-180 77t-57 204v446h161v-432q0 -141 79 -141t79 141v432h160v-446zM466 764h-108l-67 85l-66 -85h-107l115 144h119z"/>
<glyph unicode="Ü" horiz-adv-x="581" glyph-name="Udieresis" d="M530 262q0 -126 -59.5 -203.5t-182.5 -77.5t-180 77t-57 204v446h161v-432q0 -141 79 -141t79 141v432h160v-446zM274 851q0 -35 -21.5 -58.5t-52.5 -23.5q-33 0 -53.5 23.5t-20.5 58.5q0 34 21 58t53 24t53 -24t21 -58zM458 851q0 -35 -21.5 -58.5t-52.5 -23.5 q-33 0 -53.5 23.5t-20.5 58.5q0 34 21 58t53 24t53 -24t21 -58z"/>
<glyph unicode="Ý" horiz-adv-x="492" glyph-name="Yacute" d="M504 708l-180 -453v-255h-157v255l-179 453h173l85 -293h2l86 293h170zM399 908l-112 -144h-108l90 144h130z"/>
<glyph unicode="Þ" horiz-adv-x="544" glyph-name="Thorn" d="M513 369q0 -116 -64 -169.5t-166 -53.5h-63v-146h-157v708h157v-121h66q227 0 227 -218zM360 368q0 87 -93 87h-47v-178h44q96 0 96 91z"/>
<glyph unicode="ß" horiz-adv-x="528" glyph-name="germandbls" d="M379 416v-1q54 -12 90.5 -63t36.5 -132q0 -103 -47.5 -166.5t-149.5 -63.5q-26 0 -63 8v125q12 -5 32 -5q82 0 82 111q0 56 -25.5 86t-66.5 30h-18v125h17q31 0 50.5 24t19.5 65q0 34 -15 57t-45 23q-66 0 -66 -128v-511h-152v507q0 119 53 190t167 71q95 0 146 -54.5 t51 -142.5q0 -60 -28 -100.5t-69 -54.5z"/>
<glyph unicode="à" horiz-adv-x="465" glyph-name="agrave" d="M274 199v29h-28q-87 0 -87 -71q0 -29 13 -44.5t33 -15.5q34 0 51.5 30.5t17.5 71.5zM281 65h-2q-10 -36 -40.5 -57t-75.5 -21q-54 0 -95.5 38.5t-41.5 120.5q0 68 34 110.5t81 57.5t108 15h20v8q0 72 -64 72q-54 0 -93 -46l-69 96q31 37 78.5 58.5t95.5 21.5 q103 0 148 -60.5t45 -180.5v-298h-129v65zM90 723h130l90 -144h-108z"/>
<glyph unicode="á" horiz-adv-x="465" glyph-name="aacute" d="M274 199v29h-28q-87 0 -87 -71q0 -29 13 -44.5t33 -15.5q34 0 51.5 30.5t17.5 71.5zM281 65h-2q-10 -36 -40.5 -57t-75.5 -21q-54 0 -95.5 38.5t-41.5 120.5q0 68 34 110.5t81 57.5t108 15h20v8q0 72 -64 72q-54 0 -93 -46l-69 96q31 37 78.5 58.5t95.5 21.5 q103 0 148 -60.5t45 -180.5v-298h-129v65zM382 722l-112 -144h-108l90 144h130z"/>
<glyph unicode="â" horiz-adv-x="465" glyph-name="acircumflex" d="M274 199v29h-28q-87 0 -87 -71q0 -29 13 -44.5t33 -15.5q34 0 51.5 30.5t17.5 71.5zM281 65h-2q-10 -36 -40.5 -57t-75.5 -21q-54 0 -95.5 38.5t-41.5 120.5q0 68 34 110.5t81 57.5t108 15h20v8q0 72 -64 72q-54 0 -93 -46l-69 96q31 37 78.5 58.5t95.5 21.5 q103 0 148 -60.5t45 -180.5v-298h-129v65zM400 579h-108l-67 85l-66 -85h-107l115 144h119z"/>
<glyph unicode="ã" horiz-adv-x="465" glyph-name="atilde" d="M274 199v29h-28q-87 0 -87 -71q0 -29 13 -44.5t33 -15.5q34 0 51.5 30.5t17.5 71.5zM281 65h-2q-10 -36 -40.5 -57t-75.5 -21q-54 0 -95.5 38.5t-41.5 120.5q0 68 34 110.5t81 57.5t108 15h20v8q0 72 -64 72q-54 0 -93 -46l-69 96q31 37 78.5 58.5t95.5 21.5 q103 0 148 -60.5t45 -180.5v-298h-129v65zM380 711q-2 -58 -26 -92t-63 -34q-32 0 -69 23q-35 22 -56 22q-28 0 -33 -44h-58q3 56 26 90q23 36 63 36q31 0 70 -24q38 -22 57 -22q15 0 22 10.5t10 34.5h57z"/>
<glyph unicode="ä" horiz-adv-x="465" glyph-name="adieresis" d="M274 199v29h-28q-87 0 -87 -71q0 -29 13 -44.5t33 -15.5q34 0 51.5 30.5t17.5 71.5zM281 65h-2q-10 -36 -40.5 -57t-75.5 -21q-54 0 -95.5 38.5t-41.5 120.5q0 68 34 110.5t81 57.5t108 15h20v8q0 72 -64 72q-54 0 -93 -46l-69 96q31 37 78.5 58.5t95.5 21.5 q103 0 148 -60.5t45 -180.5v-298h-129v65zM208 666q0 -35 -21.5 -58.5t-52.5 -23.5q-33 0 -53.5 23.5t-20.5 58.5q0 34 21 58t53 24t53 -24t21 -58zM392 666q0 -35 -21.5 -58.5t-52.5 -23.5q-33 0 -53.5 23.5t-20.5 58.5q0 34 21 58t53 24t53 -24t21 -58z"/>
<glyph unicode="å" horiz-adv-x="465" glyph-name="aring" d="M274 199v29h-28q-87 0 -87 -71q0 -29 13 -44.5t33 -15.5q34 0 51.5 30.5t17.5 71.5zM281 65h-2q-10 -36 -40.5 -57t-75.5 -21q-54 0 -95.5 38.5t-41.5 120.5q0 68 34 110.5t81 57.5t108 15h20v8q0 72 -64 72q-54 0 -93 -46l-69 96q31 37 78.5 58.5t95.5 21.5 q103 0 148 -60.5t45 -180.5v-298h-129v65zM327 670q0 -47 -28.5 -78t-73.5 -31t-72.5 31t-27.5 78t27.5 78t72.5 31t73.5 -31t28.5 -78zM279 670q0 28 -14.5 46.5t-39.5 18.5t-38.5 -18.5t-13.5 -46.5t13.5 -46.5t38.5 -18.5t39.5 18.5t14.5 46.5z"/>
<glyph unicode="æ" horiz-adv-x="702" glyph-name="ae" d="M217 542q97 0 133 -72q43 72 132 72q96 0 143.5 -78t47.5 -198v-44h-262q1 -45 20.5 -76t50.5 -31q44 0 67 57l115 -65q-57 -126 -185 -126q-46 0 -84 22.5t-56 59.5q-16 -37 -54 -59.5t-96 -22.5q-72 0 -117.5 39.5t-45.5 123.5q0 51 19 88t52 56t70 27.5t82 8.5h20v16 q0 72 -64 72q-54 0 -93 -46l-69 96q31 37 78.5 58.5t95.5 21.5zM274 199v23h-28q-41 0 -64 -13.5t-23 -51.5q0 -29 13 -44.5t33 -15.5q35 0 52 29t17 73zM529 324q0 98 -56 98q-29 0 -45.5 -31t-17.5 -67h119z"/>
<glyph unicode="ç" horiz-adv-x="361" glyph-name="ccedilla" d="M365 40q-33 -39 -88 -51l-38 -50q8 2 23 2q36 0 62.5 -18.5t26.5 -61.5q0 -52 -42 -74.5t-94 -22.5q-63 0 -110 22l24 62q34 -17 77 -17q48 0 48 32q0 27 -42 27q-22 0 -44 -9l-31 28l56 80q-78 16 -120.5 89t-42.5 184q0 124 55 200.5t152 76.5q80 0 126 -52l-63 -122 q-20 30 -51 30q-30 0 -49 -35.5t-19 -97.5t19 -97t52 -35q31 0 50 31z"/>
<glyph unicode="è" horiz-adv-x="473" glyph-name="egrave" d="M444 222h-262q1 -45 20.5 -76t50.5 -31q44 0 67 57l115 -65q-57 -126 -188 -126q-96 0 -156.5 73.5t-60.5 205.5q0 128 59 205t154 77q103 0 152 -74.5t49 -201.5v-44zM300 324q0 98 -56 98q-29 0 -45.5 -31t-17.5 -67h119zM91 723h130l90 -144h-108z"/>
<glyph unicode="é" horiz-adv-x="473" glyph-name="eacute" d="M444 222h-262q1 -45 20.5 -76t50.5 -31q44 0 67 57l115 -65q-57 -126 -188 -126q-96 0 -156.5 73.5t-60.5 205.5q0 128 59 205t154 77q103 0 152 -74.5t49 -201.5v-44zM300 324q0 98 -56 98q-29 0 -45.5 -31t-17.5 -67h119zM396 723l-112 -144h-108l90 144h130z"/>
<glyph unicode="ê" horiz-adv-x="473" glyph-name="ecircumflex" d="M444 222h-262q1 -45 20.5 -76t50.5 -31q44 0 67 57l115 -65q-57 -126 -188 -126q-96 0 -156.5 73.5t-60.5 205.5q0 128 59 205t154 77q103 0 152 -74.5t49 -201.5v-44zM300 324q0 98 -56 98q-29 0 -45.5 -31t-17.5 -67h119zM430 579h-108l-67 85l-66 -85h-107l115 144 h119z"/>
<glyph unicode="ë" horiz-adv-x="473" glyph-name="edieresis" d="M444 222h-262q1 -45 20.5 -76t50.5 -31q44 0 67 57l115 -65q-57 -126 -188 -126q-96 0 -156.5 73.5t-60.5 205.5q0 128 59 205t154 77q103 0 152 -74.5t49 -201.5v-44zM300 324q0 98 -56 98q-29 0 -45.5 -31t-17.5 -67h119zM232 666q0 -35 -21.5 -58.5t-52.5 -23.5 q-33 0 -53.5 23.5t-20.5 58.5q0 34 21 58t53 24t53 -24t21 -58zM416 666q0 -35 -21.5 -58.5t-52.5 -23.5q-33 0 -53.5 23.5t-20.5 58.5q0 34 21 58t53 24t53 -24t21 -58z"/>
<glyph unicode="ì" horiz-adv-x="276" glyph-name="igrave" d="M216 0h-156v523h156v-523zM-6 723h130l90 -144h-108z"/>
<glyph unicode="í" horiz-adv-x="276" glyph-name="iacute" d="M216 0h-156v523h156v-523zM282 723l-112 -144h-108l90 144h130z"/>
<glyph unicode="î" horiz-adv-x="276" glyph-name="icircumflex" d="M216 0h-156v523h156v-523zM313 579h-108l-67 85l-66 -85h-107l115 144h119z"/>
<glyph unicode="ï" horiz-adv-x="276" glyph-name="idieresis" d="M216 0h-156v523h156v-523zM122 666q0 -35 -21.5 -58.5t-52.5 -23.5q-33 0 -53.5 23.5t-20.5 58.5q0 34 21 58t53 24t53 -24t21 -58zM306 666q0 -35 -21.5 -58.5t-52.5 -23.5q-33 0 -53.5 23.5t-20.5 58.5q0 34 21 58t53 24t53 -24t21 -58z"/>
<glyph unicode="ð" horiz-adv-x="489" glyph-name="eth" d="M458 259q0 -126 -60 -202t-154 -76q-96 0 -155 75.5t-59 204.5q0 117 56 189.5t145 72.5q25 0 42 -12l3 1q-26 54 -65 96l-100 -49l-63 67l103 48q-17 18 -77 62l126 57q60 -52 75 -69l90 43l69 -66l-106 -48q130 -167 130 -394zM315 261q0 61 -18.5 100t-52.5 39 t-51.5 -39t-17.5 -100t17.5 -100t51.5 -39t52.5 39.5t18.5 99.5z"/>
<glyph unicode="ñ" horiz-adv-x="540" glyph-name="ntilde" d="M62 523h153v-74h2q14 40 48 66.5t80 26.5q43 0 71.5 -17.5t42.5 -51t19.5 -69.5t5.5 -84v-320h-157v321q0 83 -47 83q-28 0 -44.5 -26.5t-16.5 -69.5v-308h-157v523zM423 703q-2 -58 -26 -92t-63 -34q-32 0 -69 23q-35 22 -56 22q-28 0 -33 -44h-58q3 56 26.5 91t62.5 35 q31 0 70 -24q38 -22 57 -22q15 0 22 10.5t10 34.5h57z"/>
<glyph unicode="ò" horiz-adv-x="495" glyph-name="ograve" d="M465 261q0 -125 -58.5 -202.5t-158.5 -77.5t-159 78t-59 202q0 125 59 203t159 78t158.5 -78t58.5 -203zM315 262q0 63 -16.5 102.5t-50.5 39.5q-33 0 -49.5 -39.5t-16.5 -102.5t16.5 -102.5t49.5 -39.5q34 0 50.5 39.5t16.5 102.5zM102 723h130l90 -144h-108z"/>
<glyph unicode="ó" horiz-adv-x="495" glyph-name="oacute" d="M465 261q0 -125 -58.5 -202.5t-158.5 -77.5t-159 78t-59 202q0 125 59 203t159 78t158.5 -78t58.5 -203zM315 262q0 63 -16.5 102.5t-50.5 39.5q-33 0 -49.5 -39.5t-16.5 -102.5t16.5 -102.5t49.5 -39.5q34 0 50.5 39.5t16.5 102.5zM396 723l-112 -144h-108l90 144h130z "/>
<glyph unicode="ô" horiz-adv-x="495" glyph-name="ocircumflex" d="M465 261q0 -125 -58.5 -202.5t-158.5 -77.5t-159 78t-59 202q0 125 59 203t159 78t158.5 -78t58.5 -203zM315 262q0 63 -16.5 102.5t-50.5 39.5q-33 0 -49.5 -39.5t-16.5 -102.5t16.5 -102.5t49.5 -39.5q34 0 50.5 39.5t16.5 102.5zM422 579h-108l-67 85l-66 -85h-107 l115 144h119z"/>
<glyph unicode="õ" horiz-adv-x="495" glyph-name="otilde" d="M465 261q0 -125 -58.5 -202.5t-158.5 -77.5t-159 78t-59 202q0 125 59 203t159 78t158.5 -78t58.5 -203zM315 262q0 63 -16.5 102.5t-50.5 39.5q-33 0 -49.5 -39.5t-16.5 -102.5t16.5 -102.5t49.5 -39.5q34 0 50.5 39.5t16.5 102.5zM401 711q-2 -58 -26 -92t-63 -34 q-32 0 -69 23q-35 22 -56 22q-28 0 -33 -44h-58q3 56 26 90q23 36 63 36q31 0 70 -24q38 -22 57 -22q15 0 22 10.5t10 34.5h57z"/>
<glyph unicode="ö" horiz-adv-x="495" glyph-name="odieresis" d="M465 261q0 -125 -58.5 -202.5t-158.5 -77.5t-159 78t-59 202q0 125 59 203t159 78t158.5 -78t58.5 -203zM315 262q0 63 -16.5 102.5t-50.5 39.5q-33 0 -49.5 -39.5t-16.5 -102.5t16.5 -102.5t49.5 -39.5q34 0 50.5 39.5t16.5 102.5zM230 666q0 -35 -21.5 -58.5 t-52.5 -23.5q-33 0 -53.5 23.5t-20.5 58.5q0 34 21 58t53 24t53 -24t21 -58zM414 666q0 -35 -21.5 -58.5t-52.5 -23.5q-33 0 -53.5 23.5t-20.5 58.5q0 34 21 58t53 24t53 -24t21 -58z"/>
<glyph unicode="÷" horiz-adv-x="666" glyph-name="divide" d="M246 489q0 34 26 59t61 25t60.5 -25t25.5 -59q0 -35 -25.5 -60t-60.5 -25t-61 25t-26 60zM246 117q0 34 26 59t61 25t60.5 -25t25.5 -59q0 -35 -25.5 -60t-60.5 -25t-61 25.5t-26 59.5zM586 240h-507v127h507v-127z"/>
<glyph unicode="ø" horiz-adv-x="495" glyph-name="oslash" d="M437 545l-37 -73q65 -77 65 -211q0 -125 -58.5 -202.5t-158.5 -77.5q-57 0 -101 26l-26 -57l-67 32l37 74q-61 78 -61 205q0 125 59 203t159 78q54 0 95 -23l28 57zM326 262q0 38 -6 71l-110 -216q15 -15 38 -15q39 0 58.5 44.5t19.5 115.5zM172 262q0 -36 4 -60l105 209 q-14 11 -33 11q-38 0 -57 -44.5t-19 -115.5z"/>
<glyph unicode="ù" horiz-adv-x="540" glyph-name="ugrave" d="M478 0h-153v74h-2q-14 -40 -48 -66.5t-80 -26.5q-43 0 -71.5 17.5t-42.5 51t-19.5 69.5t-5.5 84v320h157v-320q0 -83 47 -83q28 0 44.5 26.5t16.5 69.5v307h157v-523zM124 723h130l90 -144h-108z"/>
<glyph unicode="ú" horiz-adv-x="540" glyph-name="uacute" d="M478 0h-153v74h-2q-14 -40 -48 -66.5t-80 -26.5q-43 0 -71.5 17.5t-42.5 51t-19.5 69.5t-5.5 84v320h157v-320q0 -83 47 -83q28 0 44.5 26.5t16.5 69.5v307h157v-523zM416 723l-112 -144h-108l90 144h130z"/>
<glyph unicode="û" horiz-adv-x="540" glyph-name="ucircumflex" d="M478 0h-153v74h-2q-14 -40 -48 -66.5t-80 -26.5q-43 0 -71.5 17.5t-42.5 51t-19.5 69.5t-5.5 84v320h157v-320q0 -83 47 -83q28 0 44.5 26.5t16.5 69.5v307h157v-523zM442 579h-108l-67 85l-66 -85h-107l115 144h119z"/>
<glyph unicode="ü" horiz-adv-x="540" glyph-name="udieresis" d="M478 0h-153v74h-2q-14 -40 -48 -66.5t-80 -26.5q-43 0 -71.5 17.5t-42.5 51t-19.5 69.5t-5.5 84v320h157v-320q0 -83 47 -83q28 0 44.5 26.5t16.5 69.5v307h157v-523zM250 666q0 -35 -21.5 -58.5t-52.5 -23.5q-33 0 -53.5 23.5t-20.5 58.5q0 34 21 58t53 24t53 -24 t21 -58zM434 666q0 -35 -21.5 -58.5t-52.5 -23.5q-33 0 -53.5 23.5t-20.5 58.5q0 34 21 58t53 24t53 -24t21 -58z"/>
<glyph unicode="ý" horiz-adv-x="476" glyph-name="yacute" d="M473 523l-148 -541q-11 -41 -21.5 -69.5t-28 -59.5t-38.5 -49.5t-52.5 -31t-71.5 -12.5t-88 10l21 142q19 -8 42 -8q48 0 63 54l8 29l-156 536h165l75 -349h2l69 349h159zM391 723l-112 -144h-108l90 144h130z"/>
<glyph unicode="þ" horiz-adv-x="528" glyph-name="thorn" d="M62 762h151v-301h3q31 78 109 78q82 0 127.5 -76t45.5 -196q0 -123 -46 -203t-127 -80q-41 0 -68.5 20.5t-38.5 51.5h-2v-296h-154v1002zM210 262q0 -62 17.5 -102t49.5 -40q34 0 50.5 39.5t16.5 102.5q0 64 -16.5 103t-50.5 39q-32 0 -49.5 -40t-17.5 -102z"/>
</font>
</defs>
</svg>
